<svg id="visual" viewBox="0 0 900 600" width="900" height="600" xmlns="http://www.w3.org/2000/svg" xmlns:xlink="http://www.w3.org/1999/xlink" version="1.1"><rect x="0" y="0" width="900" height="600" fill="#001220"></rect><path d="M0 507L21.5 512C43 517 86 527 128.8 528.3C171.7 529.7 214.3 522.3 257.2 518.5C300 514.7 343 514.3 385.8 517.2C428.7 520 471.3 526 514.2 524.5C557 523 600 514 642.8 509.2C685.7 504.3 728.3 503.7 771.2 508.3C814 513 857 523 878.5 528L900 533L900 601L878.5 601C857 601 814 601 771.2 601C728.3 601 685.7 601 642.8 601C600 601 557 601 514.2 601C471.3 601 428.7 601 385.8 601C343 601 300 601 257.2 601C214.3 601 171.7 601 128.8 601C86 601 43 601 21.5 601L0 601Z" fill="#fa7268"></path><path d="M0 531L21.5 531C43 531 86 531 128.8 535.2C171.7 539.3 214.3 547.7 257.2 550C300 552.3 343 548.7 385.8 547.5C428.7 546.3 471.3 547.7 514.2 548.2C557 548.7 600 548.3 642.8 549.5C685.7 550.7 728.3 553.3 771.2 555C814 556.7 857 557.3 878.5 557.7L900 558L900 601L878.5 601C857 601 814 601 771.2 601C728.3 601 685.7 601 642.8 601C600 601 557 601 514.2 601C471.3 601 428.7 601 385.8 601C343 601 300 601 257.2 601C214.3 601 171.7 601 128.8 601C86 601 43 601 21.5 601L0 601Z" fill="#e34c67"></path><path d="M0 571L21.5 571.5C43 572 86 573 128.8 574C171.7 575 214.3 576 257.2 576.5C300 577 343 577 385.8 577.2C428.7 577.3 471.3 577.7 514.2 574.2C557 570.7 600 563.3 642.8 562C685.7 560.7 728.3 565.3 771.2 567.2C814 569 857 568 878.5 567.5L900 567L900 601L878.5 601C857 601 814 601 771.2 601C728.3 601 685.7 601 642.8 601C600 601 557 601 514.2 601C471.3 601 428.7 601 385.8 601C343 601 300 601 257.2 601C214.3 601 171.7 601 128.8 601C86 601 43 601 21.5 601L0 601Z" fill="#c62368"></path></svg>